<svg width="584" height="432" viewBox="0 0 584 432" fill="none" xmlns="http://www.w3.org/2000/svg">
<g clip-path="url(#clip0_1_2)">
<path d="M291.52 308.951C227.088 308.951 166.482 299.359 120.868 281.943C74.6457 264.295 49.1902 240.588 49.1902 215.188C49.1902 189.789 74.6458 166.083 120.868 148.435C166.482 131.018 227.088 121.427 291.52 121.427C355.953 121.427 416.558 131.018 462.173 148.435C508.394 166.083 533.85 189.79 533.85 215.188C533.85 240.587 508.394 264.295 462.173 281.943C416.558 299.359 355.953 308.951 291.52 308.951V308.951ZM291.52 125.427C227.563 125.427 167.465 134.925 122.295 152.171C77.7317 169.186 53.1902 191.566 53.1902 215.188C53.1902 238.81 77.7317 261.191 122.295 278.206C167.465 295.453 227.563 304.951 291.52 304.951C355.477 304.951 415.576 295.453 460.745 278.206C505.308 261.191 529.85 238.811 529.85 215.188C529.85 191.565 505.308 169.186 460.745 152.171C415.575 134.925 355.477 125.427 291.52 125.427V125.427Z" fill="#61DAFB"/>
<path d="M391.642 430.378C371.618 430.378 346.657 418.805 319.035 396.355C281.145 365.56 242.535 317.87 210.32 262.07C178.103 206.27 156.107 148.988 148.383 100.777C140.556 51.9228 148.359 18.0244 170.355 5.32513C192.351 -7.3736 225.611 2.81781 264.005 34.0224C301.895 64.8178 340.505 112.508 372.72 168.308C404.937 224.107 426.933 281.39 434.657 329.602C442.484 378.455 434.681 412.353 412.685 425.054C406.513 428.616 399.452 430.378 391.642 430.378V430.378ZM191.505 3.96918C184.365 3.96918 177.943 5.56293 172.355 8.789C151.897 20.6005 144.786 53.0439 152.333 100.144C159.982 147.886 181.805 204.682 213.783 260.07C245.762 315.458 284.037 362.756 321.558 393.251C358.575 423.337 390.228 433.402 410.685 421.589C431.143 409.777 438.254 377.334 430.707 330.234C423.058 282.492 401.235 225.696 369.257 170.308C337.278 114.92 299.003 67.622 261.482 37.1269C234.576 15.2587 210.504 3.96918 191.505 3.96918Z" fill="#61DAFB"/>
<path d="M191.397 430.378C183.586 430.378 176.528 428.617 170.355 425.054C148.359 412.353 140.556 378.455 148.383 329.602C156.107 281.39 178.103 224.107 210.32 168.308C242.535 112.508 281.145 64.8178 319.035 34.0224C357.43 2.81731 390.69 -7.37507 412.685 5.32512C434.681 18.0243 442.484 51.9228 434.657 100.777C426.933 148.988 404.937 206.27 372.72 262.07C340.505 317.87 301.895 365.56 264.005 396.355C236.385 418.804 211.421 430.378 191.397 430.378V430.378ZM391.535 3.96917C372.536 3.96917 348.467 15.2573 321.558 37.1269C284.037 67.622 245.762 114.92 213.783 170.308C181.805 225.696 159.982 282.492 152.333 330.234C144.786 377.334 151.897 409.777 172.355 421.589C177.942 424.814 184.367 426.408 191.505 426.409C210.504 426.411 234.573 415.121 261.482 393.251C299.003 362.756 337.278 315.458 369.257 260.07C401.235 204.682 423.058 147.886 430.707 100.144C438.254 53.0439 431.143 20.6005 410.685 8.78899C405.098 5.56389 398.673 3.96917 391.535 3.96917V3.96917Z" fill="#61DAFB"/>
<path d="M310.789 277.578C335.525 277.578 355.578 257.525 355.578 232.789C355.578 208.053 335.525 188 310.789 188C286.053 188 266 208.053 266 232.789C266 257.525 286.053 277.578 310.789 277.578Z" fill="#61DAFB"/>
<path d="M564.784 338.786C563.94 337.362 560.287 338.887 559.616 337.595C558.947 336.307 562.34 334.346 564.279 329.865C564.629 329.057 566.832 323.965 565.201 322.393C562.109 319.415 547.961 331.706 543.01 327.684C541.924 326.801 541.164 325.039 537.876 322.178C536.568 321.04 535.776 320.526 535.011 320.717C533.924 320.988 533.838 322.442 532.673 325.301C530.926 329.588 529.893 329.329 528.875 332.75C528.12 335.289 528.292 336.765 527.403 337.053C526.145 337.46 524.987 334.767 523.392 335.008C521.765 335.254 520.781 338.39 520.471 340.738C519.887 345.144 521.505 348.051 522.402 351.109C523.377 354.431 523.955 359.483 521.705 366.636L499.427 429.402C504.346 416.523 518.586 381.217 524.57 368.097C526.297 364.31 528.204 360.468 532.121 358.952C535.891 357.492 541.069 358.363 547.671 356.773C548.442 356.587 550.581 356.043 550.851 354.785C551.073 353.744 549.815 353.164 550.008 352.189C550.268 350.882 552.742 350.866 555.784 349.358C557.928 348.295 559.264 347.03 560.413 345.943C560.759 345.615 565.908 340.681 564.784 338.786V338.786Z" fill="#16F7B3"/>
<path d="M477.139 371.829C476.197 371.832 475.891 374.065 475.063 374.022C474.238 373.979 474.254 371.747 472.615 369.503C472.319 369.098 470.455 366.547 469.214 366.894C466.86 367.552 468.81 378.043 465.407 379.312C464.661 379.591 463.577 379.455 461.224 380.243C460.288 380.557 459.807 380.797 459.68 381.228C459.5 381.84 460.188 382.301 461.255 383.698C462.856 385.792 462.43 386.225 463.816 387.711C464.844 388.815 465.618 389.156 465.503 389.676C465.34 390.41 463.683 390.202 463.342 391.054C462.993 391.924 464.248 393.311 465.311 394.141C467.305 395.699 469.199 395.744 470.958 396.185C472.87 396.666 475.517 397.84 478.378 401.008L502.756 430.052C497.854 423.922 484.635 406.746 479.922 400.023C478.561 398.083 477.226 396.038 477.612 393.679C477.983 391.407 479.905 389.117 481.029 385.418C481.161 384.986 481.511 383.779 480.971 383.283C480.524 382.874 479.876 383.324 479.454 382.948C478.887 382.444 479.593 381.224 479.731 379.297C479.828 377.937 479.593 376.917 479.39 376.039C479.329 375.775 478.393 371.824 477.139 371.829H477.139Z" fill="#16F7B3"/>
<path d="M495.939 376.049L495.371 370.981L495.63 370.596C496.831 368.82 497.442 367.085 497.45 365.438C497.451 365.176 497.439 364.914 497.426 364.647C497.377 363.59 497.316 362.276 498.001 360.744C498.386 359.89 499.465 357.913 501.087 358.157C501.524 358.219 501.855 358.419 502.105 358.654C502.142 358.595 502.18 358.537 502.22 358.473C502.726 357.702 503.126 357.372 503.511 357.054C503.807 356.809 504.113 356.557 504.593 355.96C504.804 355.698 504.967 355.468 505.106 355.275C505.525 354.69 506.074 353.992 507.04 354.004C508.073 354.053 508.614 354.907 508.972 355.473C509.612 356.481 509.902 357.208 510.094 357.69C510.164 357.866 510.244 358.064 510.284 358.125C510.617 358.615 513.322 358.157 514.341 357.991C516.631 357.609 518.612 357.279 519.428 358.723C520.013 359.755 519.579 361.121 518.098 362.89C517.637 363.441 517.146 363.859 516.71 364.187C517.071 364.403 517.394 364.733 517.525 365.252C517.834 366.48 516.778 367.711 514.388 368.915C513.795 369.216 512.996 369.618 511.876 369.811C511.349 369.901 510.874 369.923 510.468 369.936C510.459 370.171 510.404 370.425 510.261 370.687C509.841 371.458 508.967 371.825 507.651 371.737C506.202 371.661 505.009 371.384 503.957 371.142C503.038 370.932 502.246 370.753 501.625 370.795C500.472 370.888 499.584 371.81 498.541 373.007L495.939 376.049V376.049Z" fill="#16F7B3"/>
<path d="M498.572 345.873L493.814 347.708L493.376 347.554C491.353 346.844 489.52 346.692 487.925 347.103C487.671 347.168 487.421 347.246 487.166 347.326C486.156 347.641 484.9 348.034 483.245 347.759C482.321 347.604 480.135 347.062 479.96 345.431C479.908 344.993 480.018 344.622 480.182 344.32C480.116 344.299 480.05 344.277 479.978 344.254C479.104 343.961 478.683 343.658 478.277 343.366C477.966 343.141 477.644 342.91 476.945 342.597C476.638 342.46 476.374 342.36 476.152 342.275C475.48 342.017 474.666 341.664 474.433 340.726C474.218 339.714 474.907 338.975 475.363 338.485C476.176 337.61 476.805 337.145 477.223 336.837C477.376 336.725 477.547 336.597 477.596 336.543C477.985 336.097 476.856 333.596 476.437 332.652C475.487 330.535 474.665 328.702 475.855 327.546C476.705 326.719 478.136 326.793 480.223 327.776C480.873 328.082 481.402 328.451 481.83 328.789C481.946 328.385 482.184 327.989 482.653 327.731C483.763 327.121 485.221 327.83 486.992 329.836C487.434 330.334 488.025 331.005 488.496 332.039C488.717 332.526 488.859 332.98 488.974 333.37C489.203 333.318 489.463 333.307 489.753 333.379C490.605 333.59 491.182 334.341 491.43 335.637C491.725 337.058 491.76 338.282 491.792 339.361C491.822 340.304 491.85 341.115 492.048 341.706C492.43 342.797 493.548 343.422 494.97 344.127L498.572 345.873V345.873Z" fill="#16F7B3"/>
<path d="M495.939 330.942L495.371 325.874L495.63 325.49C496.831 323.713 497.442 321.978 497.45 320.331C497.451 320.069 497.439 319.807 497.426 319.54C497.377 318.483 497.316 317.169 498.001 315.637C498.386 314.783 499.465 312.806 501.087 313.05C501.524 313.112 501.855 313.312 502.105 313.547C502.142 313.488 502.18 313.43 502.22 313.366C502.726 312.595 503.126 312.265 503.511 311.947C503.807 311.702 504.113 311.45 504.593 310.853C504.804 310.591 504.967 310.361 505.106 310.168C505.525 309.583 506.074 308.885 507.04 308.897C508.073 308.946 508.614 309.801 508.972 310.366C509.612 311.374 509.902 312.101 510.094 312.583C510.164 312.759 510.244 312.957 510.284 313.019C510.617 313.508 513.322 313.05 514.341 312.884C516.631 312.502 518.612 312.172 519.428 313.616C520.013 314.648 519.579 316.014 518.098 317.783C517.637 318.334 517.146 318.752 516.71 319.08C517.071 319.296 517.394 319.626 517.525 320.145C517.834 321.373 516.778 322.604 514.388 323.808C513.795 324.109 512.996 324.511 511.876 324.704C511.349 324.795 510.874 324.817 510.468 324.829C510.459 325.064 510.404 325.318 510.261 325.58C509.841 326.351 508.967 326.718 507.651 326.63C506.202 326.554 505.009 326.278 503.957 326.035C503.038 325.825 502.246 325.646 501.625 325.688C500.472 325.781 499.584 326.703 498.541 327.9L495.939 330.942V330.942Z" fill="#16F7B3"/>
<path d="M501.124 429.32L500.062 428.654L499.805 427.428L500.062 428.654L498.824 428.796C498.804 428.681 498.737 428.417 498.635 428.003C498.081 425.737 496.391 418.841 494.982 407.98C493.998 400.399 493.441 392.604 493.326 384.81C493.211 377.003 493.581 371.093 493.877 366.343C494.101 362.761 494.372 359.349 494.639 356.026C495.349 347.147 496.018 338.761 495.52 329.476C495.41 327.403 495.179 323.089 492.658 318.498C491.196 315.835 489.182 313.471 486.671 311.474L488.232 309.512C491.004 311.719 493.232 314.338 494.856 317.294C497.65 322.384 497.902 327.085 498.024 329.344C498.53 338.793 497.853 347.26 497.136 356.224C496.872 359.535 496.6 362.932 496.378 366.5C496.084 371.206 495.718 377.064 495.832 384.771C495.945 392.472 496.495 400.171 497.466 407.657C498.858 418.381 500.523 425.174 501.07 427.406C501.362 428.598 501.423 428.847 501.124 429.32V429.32Z" fill="#16F7B3"/>
<path d="M482.075 315.456C481.972 315.456 481.868 315.454 481.763 315.446C479.629 315.331 477.653 314.054 475.889 311.651C475.061 310.52 474.638 309.23 473.794 306.658C473.663 306.262 473.027 304.25 472.64 301.482C472.387 299.674 472.418 298.918 472.777 298.25C473.175 297.506 473.818 296.987 474.543 296.637C474.511 296.397 474.536 296.15 474.64 295.898C475.068 294.853 476.203 294.99 476.817 295.056C477.128 295.095 477.516 295.147 477.934 295.125C478.593 295.093 478.946 294.897 479.482 294.603C479.995 294.322 480.632 293.972 481.578 293.779C483.443 293.39 485.006 293.918 485.521 294.092C488.231 294.995 489.567 297.102 491.114 299.542C491.422 300.031 492.481 301.813 493.179 304.255C493.683 306.017 493.612 306.8 493.461 307.383C493.152 308.579 492.424 309.265 490.575 310.777C488.645 312.36 487.675 313.153 486.843 313.635C484.906 314.754 483.69 315.456 482.075 315.456V315.456Z" fill="#16F7B3"/>
<path d="M243.47 228.74C247.635 229.839 251.579 228.58 252.278 225.929C252.977 223.278 250.167 220.238 246 219.139C244.341 218.677 242.596 218.619 240.91 218.97L223.201 214.536L221.297 222.891L238.958 226.375C240.251 227.513 241.798 228.323 243.47 228.74V228.74Z" fill="#FFB6B6"/>
<path d="M146.133 188.062C146.133 188.062 142.536 194.965 147.522 198.37C152.507 201.775 194.024 217.556 194.024 217.556L235.254 226.528L236.742 216.508L199.204 204.516L167.901 183.463L146.133 188.062H146.133Z" fill="#0F0F0E"/>
<path d="M195.229 410.87L202.222 407.724L191.212 374.816L180.892 379.457L195.229 410.87Z" fill="#FFB6B6"/>
<path d="M225.854 413.944C226.413 415.112 226.038 416.456 225.015 416.945L211.29 423.512C211.29 423.512 207.342 418.729 200.717 419.028L204.053 426.975L196.973 430.363L191.856 417.466C191.856 417.466 186.765 411.692 189.065 406.395C191.364 401.098 188.406 403.098 188.406 403.098L186.255 394.629L197.556 390.768L203.439 402.862L214.393 412.419L223.809 412.537C224.647 412.548 225.451 413.101 225.854 413.944L225.854 413.944V413.944Z" fill="#0F0F0E"/>
<path d="M56.8607 393.879L63.1094 398.323L85.9381 372.188L76.717 365.63L56.8607 393.879Z" fill="#FFB6B6"/>
<path d="M69.6893 421.858C68.964 422.931 67.6147 423.286 66.6756 422.651L54.0713 414.128C54.0713 414.128 56.2022 408.304 52.5958 402.739L47.4248 409.634L40.9227 405.238L49.464 394.303C49.464 394.303 51.8728 386.992 57.6055 386.299C63.3382 385.605 60.1172 384.063 60.1172 384.063L66.3371 377.927L75.3813 385.725L67.9204 396.915L65.2113 411.198L69.8692 419.382C70.2838 420.11 70.213 421.083 69.6892 421.858L69.6893 421.858V421.858Z" fill="#0F0F0E"/>
<path d="M167.488 143.322H134.654V188.413H167.488V143.322Z" fill="#2F2E41"/>
<path d="M160.115 169.095L142.287 163.795L138.914 172.949L138.432 228.842C138.432 228.842 163.969 223.06 169.751 232.696L171.679 215.351C171.679 215.351 177.942 206.678 172.642 195.595C167.342 184.513 162.345 179.517 162.345 179.517L158.187 177.286L160.115 169.095V169.095Z" fill="#6C63FF"/>
<path d="M139.637 220.41L137.228 244.983L169.028 251.729C169.028 251.729 166.619 230.528 169.51 225.71L139.637 220.41V220.41Z" fill="#FFB6B6"/>
<path d="M170.956 251.247C170.956 251.247 150.719 236.31 133.373 242.092C133.373 242.092 112.895 254.861 123.495 277.025L107.354 315.33L71.2168 365.923L81.3352 377.968L129.036 328.34L144.455 307.139L183.483 390.014L195.529 384.232L180.592 320.631L171.678 276.543L170.956 251.247Z" fill="#0F0F0E"/>
<path d="M123.736 279.675L99.6448 271.966L122.773 207.882L120.364 173.672L140.768 167.917L152.164 218.482L123.736 279.675Z" fill="#0F0F0E"/>
<path d="M161.014 180.848L157.372 177.206L158.996 173.849C158.996 173.849 169.51 184.754 171.438 187.645C173.365 190.536 191.363 263.147 191.363 263.147L164.21 274.375L169.51 217.361L171.473 204.538C171.763 202.641 171.438 200.702 170.547 199.004L161.014 180.848Z" fill="#0F0F0E"/>
<path d="M152.152 164.537C160.976 164.537 168.129 157.384 168.129 148.56C168.129 139.736 160.976 132.583 152.152 132.583C143.328 132.583 136.174 139.736 136.174 148.56C136.174 157.384 143.328 164.537 152.152 164.537Z" fill="#FFB6B6"/>
<path d="M162.089 142.029C156.607 138.373 146.796 153.015 143.796 144.015C143.328 142.611 142.228 148.82 141.825 150.992C141.314 153.751 142.607 155.954 141.825 156.448C140.941 157.005 138.775 154.515 138.318 154.889C137.871 155.254 139.308 158.148 141.825 161.514C145.166 165.981 147.26 167.068 150.008 170.087C152.567 172.897 157.302 178.097 156.633 182.557C155.375 190.945 134.892 197.428 128.575 191.13C127.063 189.622 126.767 186.207 126.237 179.439C125.449 169.367 126.044 161.809 126.237 159.565C127.042 150.222 127.444 145.55 129.355 141.639C130.575 139.142 134.685 130.733 143.773 128C153.536 125.065 165.156 129.85 168.324 136.963C169.239 139.018 168.349 138.799 169.493 145.536C170.846 153.51 171.722 158.294 175.338 161.124C178.66 163.724 181.224 162.27 182.353 164.241C185.28 169.354 171.696 185.53 165.986 183.336C162.545 182.014 162.241 174.13 162.478 170.476C162.99 162.609 166.889 160.939 166.765 153.72C166.732 151.81 166.616 145.049 162.089 142.029V142.029Z" fill="#0F0F0E"/>
<path d="M92.4817 275.542C91.8034 279.797 93.4488 283.596 96.1565 284.027C98.8642 284.458 101.608 281.359 102.286 277.103C102.581 275.406 102.464 273.664 101.947 272.022L104.594 253.958L96.0906 252.897L94.3843 270.817C93.3818 272.217 92.7294 273.838 92.4817 275.542H92.4817Z" fill="#FFB6B6"/>
<path d="M123.255 174.636C123.255 174.636 116.027 171.745 113.136 177.045C110.245 182.345 98.6812 225.228 98.6812 225.228L93.8629 267.147L103.981 267.629L112.172 229.083L130 195.836L123.255 174.636V174.636Z" fill="#0F0F0E"/>
<path d="M583.04 430.18C583.04 430.644 582.664 431.02 582.2 431.02H0V429.34H582.2C582.664 429.34 583.04 429.716 583.04 430.18V430.18Z" fill="#16F7B3" fill-opacity="0.32"/>
</g>
<defs>
<clipPath id="clip0_1_2">
<rect width="583.04" height="431.02" fill="white"/>
</clipPath>
</defs>
</svg>
